<?xml version="1.0" encoding="iso-8859-1"?>
<!-- Generator: Adobe Illustrator 24.1.2, SVG Export Plug-In . SVG Version: 6.00 Build 0)  -->
<svg version="1.1" id="Capa_1" xmlns="http://www.w3.org/2000/svg" xmlns:xlink="http://www.w3.org/1999/xlink" x="0px" y="0px"
	 viewBox="0 0 1000 1000" style="enable-background:new 0 0 1000 1000;" xml:space="preserve">
<g>
	<path style="fill:#FD333E;" d="M511.3,45.668v180.879c-8.578,0-17.156,2.209-24.833,6.645L363.63,304.1
		c-15.371,8.873-24.833,25.274-24.833,43.02v144.762c0,11.413,3.921,22.329,10.879,31.036l-185.499,96.808
		c-2.669-8.081-4.087-16.659-4.087-25.422V282.876c0-29.103,15.536-56.016,40.756-70.577L470.545,56.584
		C483.154,49.313,497.218,45.668,511.3,45.668z"/>
	<path style="fill:#2AD1A5;" d="M862.491,282.876v311.429c0,8.762-1.417,17.34-4.068,25.422l-186.861-97.508
		c7.787-8.928,12.223-20.452,12.223-32.619V347.12c0-17.745-9.462-34.147-24.833-43.02l-122.819-70.908
		c-7.695-4.436-16.273-6.645-24.833-6.645V45.668c14.064,0,28.146,3.645,40.737,10.916l269.716,155.715
		C846.955,226.86,862.491,253.772,862.491,282.876z"/>
	<path style="fill:#2086C0;" d="M858.423,619.727c-3.903,11.873-10.493,22.679-19.237,31.625l-0.018,0.018
		c-5.099,5.21-10.934,9.775-17.414,13.512l-13.419,7.75l-408.624,281.7v-174.62l-198.863-114.83
		c-17.617-10.161-30.502-26.379-36.669-45.155l185.499-96.808c2.89,3.608,6.277,6.829,10.143,9.554l205.453,145.056v-88.359
		l94.526-57.047c4.473-2.706,8.431-6.056,11.763-9.904L858.423,619.727z"/>
</g>
</svg>
